<svg width="20" height="12" viewBox="0 0 20 12" fill="none" xmlns="http://www.w3.org/2000/svg">
<g clip-path="url(#clip0_229_4228)">
<path fill-rule="evenodd" clip-rule="evenodd" d="M0 0H28.5V0.92345H0V0ZM0 1.84688H28.5V2.77033H0V1.84688ZM0 3.6914H28.5V4.61718H0V3.6914ZM0 5.53828H28.5V6.46172H0V5.53828ZM0 7.38515H28.5V8.3086H0V7.38515ZM0 9.22968H28.5V10.1531H0V9.22968ZM0 11.0766H28.5V12H0V11.0766Z" fill="#BD3D44"/>
<path fill-rule="evenodd" clip-rule="evenodd" d="M0 0.923462H28.5V1.84689H0V0.923462ZM0 2.77031H28.5V3.69141H0V2.77031ZM0 4.61486H28.5V5.53829H0V4.61486ZM0 6.46174H28.5V7.38516H0V6.46174ZM0 8.30861H28.5V9.23204H0V8.30861ZM0 10.1531H28.5V11.0766H0V10.1531Z" fill="white"/>
<path fill-rule="evenodd" clip-rule="evenodd" d="M0 0H11.3994V6.46172H0V0Z" fill="#192F5D"/>
<path fill-rule="evenodd" clip-rule="evenodd" d="M0.949234 0.276611L1.0547 0.532036H1.3887L1.11914 0.689086L1.2217 0.946886L0.949234 0.787511L0.679702 0.944536L0.782234 0.689086L0.509796 0.532036H0.84964L0.949234 0.276611ZM2.85061 0.276611L2.95314 0.532036H3.29005L3.01758 0.689086L3.12014 0.946886L2.85061 0.787511L2.57814 0.944536L2.68067 0.689086L2.41114 0.532036H2.74514L2.85061 0.276611ZM4.74905 0.276611L4.85452 0.532061H5.18558L4.91605 0.689111L5.01855 0.946911L4.74611 0.787536L4.47658 0.944561L4.57911 0.689111L4.30664 0.532061H4.64358L4.74905 0.276611ZM6.65042 0.276611L6.75292 0.532061H7.08986L6.81739 0.689111L6.92286 0.946911L6.65039 0.787536L6.37795 0.944561L6.48342 0.689111L6.21095 0.532061H6.54495L6.65042 0.276611ZM8.54886 0.276611L8.65433 0.532061H8.9883L8.71877 0.689111L8.8213 0.946911L8.54883 0.787536L8.2793 0.944561L8.38186 0.689111L8.11233 0.532061H8.4463L8.54886 0.276611ZM10.4502 0.276611L10.5527 0.532061H10.8897L10.6172 0.689111L10.7227 0.946911L10.4502 0.787536L10.1777 0.944561L10.2832 0.689111L10.0108 0.532061H10.3477L10.4502 0.276611ZM1.90139 0.923436L2.00392 1.17894H2.34083L2.06836 1.33594L2.16798 1.59144L1.9043 1.43439L1.63186 1.59141L1.72852 1.33596L1.46486 1.17891H1.79886L1.90139 0.923436ZM3.79983 0.923436L3.9053 1.17894H4.23927L3.9668 1.33594L4.0723 1.59144L3.7998 1.43439L3.52736 1.59141L3.63283 1.33596L3.36036 1.17891H3.69727L3.79983 0.923436ZM5.7012 0.923436L5.8037 1.17894H6.14064L5.86817 1.33594L5.9707 1.59144L5.70117 1.43439L5.42873 1.59141L5.53127 1.33599L5.26173 1.17894H5.59574L5.7012 0.923436ZM7.59964 0.923436L7.70511 1.17894H8.03908L7.76661 1.33594L7.87208 1.59144L7.59961 1.43439L7.33008 1.59141L7.43264 1.33596L7.16017 1.17891H7.50002L7.59964 0.923436ZM9.50099 0.923436L9.60352 1.17894H9.94045L9.66799 1.33594L9.77052 1.59144L9.50099 1.43439L9.22852 1.59141L9.33108 1.33596L9.06155 1.17891H9.39552L9.50099 0.923436ZM0.949234 1.56804L1.0547 1.82819H1.3887L1.11914 1.98521L1.2217 2.24069L0.949234 2.08131L0.679702 2.24069L0.782234 1.98286L0.509796 1.82586H0.84964L0.949234 1.56804ZM2.85061 1.56804L2.95314 1.82579H3.29005L3.01758 1.98281L3.12014 2.23831L2.85061 2.07891L2.57814 2.23829L2.68067 1.98049L2.41114 1.82346H2.74514L2.85061 1.56804ZM4.74905 1.56804L4.85452 1.82584H5.18558L4.91605 1.98286L5.01855 2.23836L4.74611 2.07896L4.47658 2.23834L4.57911 1.98054L4.30664 1.82351H4.64358L4.74905 1.56804ZM6.65042 1.56804L6.75292 1.82584H7.08986L6.81739 1.98286L6.92286 2.23836L6.65039 2.07896L6.37795 2.23834L6.48342 1.98054L6.21095 1.82351H6.54495L6.65042 1.56804ZM8.54886 1.56804L8.65433 1.82584H8.9883L8.71877 1.98284L8.8213 2.23834L8.54883 2.07894L8.2793 2.23831L8.38186 1.98051L8.11233 1.82349H8.4463L8.54886 1.56804ZM10.4502 1.56804L10.5527 1.82584H10.8897L10.6172 1.98286L10.7227 2.23836L10.4502 2.07896L10.1777 2.23834L10.2832 1.98054L10.0108 1.82351H10.3477L10.4502 1.56804ZM1.90139 2.21489L2.00392 2.47036H2.34083L2.06836 2.62736L2.17092 2.88519L1.90139 2.72581L1.62892 2.88284L1.73145 2.62739L1.46192 2.47036H1.79595L1.90139 2.21489ZM3.79983 2.21489L3.9053 2.47036H4.23927L3.9668 2.62736L4.0723 2.88519L3.7998 2.72581L3.52736 2.88284L3.63283 2.62739L3.36036 2.47036H3.69727L3.79983 2.21489ZM5.7012 2.21489L5.8037 2.47036H6.14064L5.86817 2.62736L5.9707 2.88519L5.70117 2.72581L5.42873 2.88284L5.53127 2.62739L5.26173 2.47036H5.59574L5.7012 2.21489ZM7.59964 2.21489L7.70511 2.47036H8.03908L7.76955 2.62736L7.87208 2.88519L7.59961 2.72581L7.33008 2.88284L7.43264 2.62739L7.16017 2.47036H7.50002L7.59964 2.21489ZM9.50099 2.21489L9.60352 2.47036H9.94045L9.66799 2.62736L9.77052 2.88519L9.50099 2.72581L9.22852 2.88284L9.33108 2.62739L9.06155 2.47036H9.39552L9.50099 2.21489ZM0.949234 2.86176L1.0547 3.11724H1.3887L1.11914 3.27424L1.2217 3.53206L0.949234 3.37269L0.679702 3.52971L0.782234 3.27426L0.509796 3.11724H0.84964L0.949234 2.86176ZM2.85061 2.86176L2.95314 3.11724H3.29005L3.01758 3.27424L3.12014 3.52974L2.85061 3.37269L2.57814 3.52971L2.68067 3.27426L2.41114 3.11724H2.74514L2.85061 2.86176ZM4.74905 2.86176L4.85452 3.11724H5.18558L4.91605 3.27424L5.01855 3.53206L4.74611 3.37269L4.47658 3.52971L4.57911 3.27426L4.30664 3.11724H4.64358L4.74905 2.86176ZM6.65042 2.86176L6.75292 3.11724H7.08986L6.81739 3.27424L6.92286 3.53206L6.65039 3.37269L6.37795 3.52971L6.48342 3.27426L6.21095 3.11724H6.54495L6.65042 2.86176ZM8.54886 2.86176L8.65433 3.11724H8.9883L8.71877 3.27424L8.8213 3.53206L8.54883 3.37269L8.2793 3.52971L8.38186 3.27426L8.11233 3.11724H8.4463L8.54886 2.86176ZM10.4502 2.86176L10.5527 3.11724H10.8897L10.6172 3.27424L10.7227 3.53206L10.4502 3.37269L10.1777 3.52971L10.2832 3.27426L10.0108 3.11724H10.3477L10.4502 2.86176ZM1.90139 3.50864L2.00392 3.76411H2.34083L2.06836 3.92111L2.17092 4.17661L1.90139 4.01724L1.62892 4.17661L1.73145 3.91879L1.46192 3.76176H1.79595L1.90139 3.50864ZM3.79983 3.50864L3.9053 3.76411H4.23927L3.9668 3.92111L4.0723 4.17661L3.7998 4.01724L3.52736 4.17661L3.63283 3.91879L3.36036 3.76176H3.69727L3.79983 3.50864ZM5.7012 3.50864L5.8037 3.76411H6.14064L5.86817 3.92111L5.9707 4.17661L5.70117 4.01724L5.42873 4.17661L5.53127 3.91879L5.26173 3.76176H5.59574L5.7012 3.50864ZM7.59964 3.50864L7.70511 3.76411H8.03908L7.76955 3.92111L7.87208 4.17661L7.59961 4.01724L7.33008 4.17661L7.43264 3.91879L7.16017 3.76176H7.50002L7.59964 3.50864ZM9.50099 3.50864L9.60352 3.76411H9.94045L9.66799 3.92111L9.77052 4.17661L9.50099 4.01724L9.22852 4.17661L9.33108 3.91879L9.06155 3.76176H9.39552L9.50099 3.50864ZM0.949234 4.15316L1.0547 4.41099H1.3887L1.11914 4.56799L1.2217 4.82114L0.949234 4.66411L0.679702 4.82111L0.782234 4.56566L0.509796 4.40864H0.84964L0.949234 4.15316ZM2.85061 4.15316L2.95314 4.41099H3.29005L3.01758 4.56799L3.12308 4.82114L2.85058 4.66411L2.57814 4.82111L2.68361 4.56566L2.41114 4.40864H2.74514L2.85061 4.15316ZM4.74905 4.15316L4.85452 4.41099H5.18558L4.91605 4.56799L5.01855 4.82114L4.74611 4.66411L4.47658 4.82111L4.57911 4.56566L4.30664 4.40864H4.64358L4.74905 4.15316ZM6.65042 4.15316L6.75292 4.41099H7.08986L6.81739 4.56799L6.92286 4.82114L6.65039 4.66411L6.37795 4.82111L6.48342 4.56566L6.21095 4.40864H6.54495L6.65042 4.15316ZM8.54886 4.15316L8.65433 4.41099H8.9883L8.71877 4.56799L8.8213 4.82114L8.54883 4.66411L8.2793 4.82111L8.38186 4.56566L8.11233 4.40864H8.4463L8.54886 4.15316ZM10.4502 4.15316L10.5527 4.41099H10.8897L10.6172 4.56799L10.7227 4.82114L10.4502 4.66411L10.1777 4.82111L10.2832 4.56566L10.0108 4.40864H10.3477L10.4502 4.15316ZM1.90139 4.80004L2.00392 5.05551H2.34083L2.06836 5.21254L2.17092 5.47036L1.90139 5.31099L1.62892 5.46799L1.73145 5.21254L1.46192 5.05551H1.79595L1.90139 4.80004ZM3.79983 4.80004L3.9053 5.05551H4.23927L3.9668 5.21254L4.0723 5.47036L3.7998 5.31099L3.52736 5.46799L3.63283 5.21254L3.36036 5.05551H3.69727L3.79983 4.80004ZM5.7012 4.80004L5.8037 5.05551H6.14064L5.86817 5.21254L5.9707 5.47036L5.70117 5.31099L5.42873 5.46799L5.53127 5.21254L5.26173 5.05551H5.59574L5.7012 4.80004ZM7.59964 4.80004L7.70511 5.05551H8.03908L7.76955 5.21254L7.87208 5.47036L7.59961 5.31099L7.33008 5.46799L7.43264 5.21254L7.16017 5.05551H7.50002L7.59964 4.80004ZM9.50099 4.80004L9.60352 5.05551H9.94045L9.66799 5.21254L9.77052 5.47036L9.50099 5.31099L9.22852 5.46799L9.33108 5.21254L9.06155 5.05551H9.39552L9.50099 4.80004ZM0.949234 5.44691L1.0547 5.70239H1.3887L1.11914 5.85941L1.2217 6.11489L0.949234 5.95786L0.679702 6.11486L0.782234 5.85706L0.509796 5.70004H0.84964L0.949234 5.44691ZM2.85061 5.44691L2.95314 5.70239H3.29005L3.01758 5.85941L3.12308 6.11489L2.85058 5.95786L2.57814 6.11486L2.68361 5.85706L2.41114 5.70004H2.74514L2.85061 5.44691ZM4.74905 5.44691L4.85452 5.70239H5.18558L4.92189 5.85941L5.02442 6.11489L4.75195 5.95786L4.48242 6.11486L4.58498 5.85706L4.31252 5.70004H4.64942L4.74905 5.44691ZM6.65042 5.44691L6.75292 5.70239H7.08986L6.81739 5.85941L6.92286 6.11489L6.65039 5.95786L6.37795 6.11486L6.48342 5.85706L6.21095 5.70004H6.54495L6.65042 5.44691ZM8.54886 5.44691L8.65433 5.70239H8.9883L8.71877 5.85941L8.8213 6.11489L8.54883 5.95786L8.2793 6.11486L8.38186 5.85706L8.11233 5.70004H8.4463L8.54886 5.44691ZM10.4502 5.44691L10.5527 5.70239H10.8897L10.6172 5.85941L10.7227 6.11489L10.4502 5.95786L10.1777 6.11486L10.2832 5.85706L10.0108 5.70004H10.3477L10.4502 5.44691Z" fill="white"/>
</g>
<defs>
<clipPath id="clip0_229_4228">
<rect width="20" height="12" fill="white"/>
</clipPath>
</defs>
</svg>
